<svg width="191" height="194" viewBox="0 0 191 194" fill="none" xmlns="http://www.w3.org/2000/svg">
<g id="Font circle">
<path id="circle" d="M34.1659 96.735C34.1659 62.6312 61.6287 34.9893 95.5 34.9893C129.371 34.9893 156.834 62.6312 156.834 96.735C156.834 130.839 129.371 158.481 95.5 158.481C61.6287 158.481 34.1659 130.839 34.1659 96.735Z" stroke="#333333" stroke-width="0.823276"/>
<path id="circle_2" d="M0.411638 96.7349C0.411638 43.532 42.9891 0.411638 95.5 0.411638C148.011 0.411638 190.588 43.532 190.588 96.7349C190.588 149.938 148.011 193.058 95.5 193.058C42.9891 193.058 0.411638 149.938 0.411638 96.7349Z" stroke="#333333" stroke-width="0.823276"/>
<g id="Vector">
<path d="M15.9957 91.2115C15.455 90.8427 15.0227 90.3249 14.6988 89.658C14.3638 88.9781 14.2294 88.2108 14.2954 87.356C14.3634 86.4772 14.6355 85.6989 15.1117 85.0212C15.5889 84.3314 16.2286 83.8117 17.0307 83.4619C17.8208 83.1112 18.7215 82.975 19.7327 83.0531C20.732 83.1304 21.607 83.4039 22.3579 83.8737C23.1088 84.3435 23.673 84.9563 24.0505 85.7122C24.429 86.456 24.5843 87.2673 24.5164 88.1461C24.4512 88.9888 24.2069 89.7208 23.7835 90.342C23.3489 90.9503 22.8357 91.4011 22.2438 91.6945L28.7628 92.1984L28.6358 93.8417L14.0448 92.7138L14.1718 91.0705L15.9957 91.2115ZM19.6029 84.7326C18.8565 84.6749 18.1948 84.7751 17.6177 85.0333C17.0407 85.2914 16.5877 85.6682 16.2587 86.1635C15.9307 86.6468 15.743 87.1954 15.6955 87.8094C15.649 88.4114 15.7562 88.9828 16.0172 89.5237C16.267 90.0517 16.6627 90.494 17.2044 90.8508C17.7349 91.1946 18.3673 91.3948 19.1017 91.4516C19.8481 91.5093 20.5159 91.4095 21.1049 91.1523C21.6829 90.8821 22.1419 90.5058 22.482 90.0235C22.8109 89.5281 22.9987 88.9795 23.0452 88.3775C23.0927 87.7636 22.9915 87.1926 22.7416 86.6646C22.4807 86.1237 22.0849 85.6813 21.5544 85.3376C21.0119 84.9929 20.3614 84.7912 19.6029 84.7326Z" fill="#333333"/>
<path d="M12.3018 77.7757L25.4674 80.2868L25.1586 81.9059L11.993 79.3947L12.3018 77.7757Z" fill="#333333"/>
<path d="M20.8871 76.9355C19.9177 76.637 19.1299 76.1796 18.5237 75.5634C17.906 74.9436 17.5 74.2311 17.3058 73.4259C17.1151 72.6091 17.1494 71.7795 17.4088 70.9371C17.6647 70.1062 18.0656 69.44 18.6117 68.9386C19.1578 68.4371 19.7482 68.1199 20.383 67.9868L18.652 67.4538L19.1424 65.8613L28.6282 68.7823L28.1379 70.3748L26.3722 69.8311C26.8302 70.3132 27.1479 70.9227 27.3253 71.6596C27.4947 72.3814 27.4532 73.152 27.2009 73.9713C26.9415 74.8137 26.4993 75.5114 25.8742 76.0643C25.2491 76.6173 24.5011 76.9744 23.6302 77.1358C22.7593 77.2972 21.8449 77.2304 20.8871 76.9355ZM23.3776 68.909C22.6621 68.6887 21.9945 68.641 21.3749 68.7661C20.7552 68.8911 20.2305 69.1591 19.8007 69.57C19.363 69.9659 19.0535 70.458 18.8723 71.0466C18.691 71.6351 18.6643 72.2144 18.792 72.7843C18.9197 73.3543 19.2046 73.8653 19.6466 74.3172C20.0886 74.7692 20.6673 75.1053 21.3828 75.3256C22.1098 75.5495 22.7889 75.6007 23.4201 75.4792C24.0398 75.3542 24.5685 75.0937 25.0063 74.6979C25.4325 74.2985 25.7362 73.8045 25.9174 73.216C26.0986 72.6275 26.1254 72.0482 25.9977 71.4782C25.862 70.8932 25.5731 70.3747 25.1311 69.9227C24.6776 69.4672 24.0931 69.1293 23.3776 68.909Z" fill="#333333"/>
<path d="M22.4329 58.1679C22.9686 57.0858 23.7326 56.3727 24.7248 56.0285C25.7063 55.6791 26.8138 55.8097 28.0474 56.4204L33.2903 59.016L32.567 60.4768L27.5352 57.9857C26.6478 57.5464 25.8617 57.4334 25.1767 57.6467C24.481 57.8547 23.9429 58.3428 23.5625 59.1111C23.1768 59.8903 23.1122 60.633 23.3688 61.3394C23.6308 62.035 24.2271 62.6131 25.1577 63.0738L30.0759 65.5087L29.3447 66.9858L20.4496 62.5822L21.1809 61.1051L22.447 61.7319C22.1371 61.2147 21.981 60.6456 21.9785 60.0246C21.9814 59.3928 22.1329 58.7739 22.4329 58.1679Z" fill="#333333"/>
<path d="M28.6554 50.4308L33.5328 53.6613C33.9355 53.928 34.2791 54.0324 34.5635 53.9746C34.838 53.9102 35.1152 53.6665 35.3952 53.2437L36.0653 52.232L37.2281 53.0021L36.4079 54.2403C35.9012 55.0054 35.345 55.4626 34.7393 55.6117C34.1336 55.7609 33.428 55.5688 32.6227 55.0354L27.7453 51.8049L27.0352 52.877L25.9027 52.1269L26.6128 51.0548L24.5289 49.6746L25.439 48.3005L27.5229 49.6807L28.9531 47.5213L30.0856 48.2715L28.6554 50.4308Z" fill="#333333"/>
<path d="M41.9605 47.2801C41.7527 47.5154 41.4953 47.6425 41.1886 47.6615C40.8818 47.6805 40.6107 47.586 40.3755 47.3782C40.1402 47.1703 40.0131 46.913 39.9941 46.6062C39.9751 46.2994 40.0696 46.0284 40.2774 45.7931C40.4773 45.5669 40.7266 45.4488 41.0254 45.4389C41.3322 45.4199 41.6032 45.5144 41.8385 45.7222C42.0738 45.9301 42.2009 46.1874 42.2199 46.4942C42.2468 46.7919 42.1604 47.0539 41.9605 47.2801Z" fill="#333333"/>
<path d="M43.1645 34.4588C43.0612 33.8125 43.1407 33.1426 43.403 32.4492C43.6671 31.7388 44.1324 31.114 44.7991 30.575C45.4845 30.0208 46.2371 29.684 47.0568 29.5647C47.8858 29.4378 48.703 29.5458 49.5081 29.8886C50.3056 30.222 51.0232 30.783 51.661 31.5717C52.2911 32.351 52.6933 33.1749 52.8675 34.0434C53.0418 34.9118 52.9839 35.7428 52.6938 36.5363C52.4132 37.3223 51.9301 37.9924 51.2447 38.5466C50.5875 39.078 49.8876 39.4032 49.1453 39.5221C48.4047 39.624 47.7245 39.5606 47.1048 39.3319L51.2159 44.4162L49.9342 45.4525L40.7327 34.0726L42.0144 33.0363L43.1645 34.4588ZM50.3512 32.6308C49.8805 32.0487 49.3531 31.6366 48.7692 31.3944C48.1852 31.1523 47.6002 31.0818 47.0143 31.1829C46.4377 31.2765 45.91 31.5168 45.4311 31.904C44.9617 32.2836 44.62 32.754 44.406 33.3152C44.1939 33.8594 44.1442 34.4509 44.2569 35.0896C44.3714 35.7113 44.6602 36.3085 45.1233 36.8812C45.594 37.4634 46.1251 37.8802 46.7167 38.1317C47.31 38.3662 47.8988 38.4414 48.483 38.3573C49.0689 38.2562 49.5966 38.0158 50.0661 37.6362C50.5449 37.249 50.8904 36.7833 51.1026 36.2391C51.3165 35.6779 51.3662 35.0865 51.2517 34.4648C51.1297 33.8337 50.8295 33.2223 50.3512 32.6308Z" fill="#333333"/>
<path d="M50.4294 22.543L57.6244 33.851L56.2338 34.7358L49.0388 23.4277L50.4294 22.543Z" fill="#333333"/>
<path d="M56.9918 28.1797C56.5452 27.269 56.3387 26.3818 56.3723 25.5181C56.4006 24.6435 56.6415 23.8596 57.0951 23.1665C57.5594 22.468 58.1873 21.9247 58.9787 21.5366C59.7592 21.1537 60.5192 20.9895 61.2586 21.0437C61.998 21.098 62.6336 21.3108 63.1654 21.6821L62.3678 20.0559L63.8639 19.3222L68.2345 28.2335L66.7384 28.9672L65.9249 27.3086C65.8874 27.9725 65.661 28.6215 65.2458 29.2555C64.836 29.8734 64.2463 30.3711 63.4766 30.7486C62.6852 31.1367 61.874 31.2925 61.0429 31.2159C60.2119 31.1394 59.4393 30.8391 58.7251 30.3152C58.0109 29.7913 57.4331 29.0795 56.9918 28.1797ZM64.5451 24.4953C64.2155 23.8232 63.7929 23.3042 63.2772 22.9384C62.7616 22.5727 62.207 22.374 61.6132 22.3425C61.0249 22.2948 60.4544 22.4065 59.9015 22.6777C59.3486 22.9488 58.9083 23.3262 58.5806 23.8097C58.2528 24.2932 58.0758 24.8507 58.0493 25.4823C58.0229 26.1139 58.1745 26.7658 58.5041 27.438C58.8391 28.121 59.2671 28.6507 59.788 29.0274C60.3036 29.3931 60.8555 29.5998 61.4438 29.6476C62.0267 29.6844 62.5946 29.5673 63.1475 29.2961C63.7004 29.0249 64.1407 28.6476 64.4684 28.1641C64.8017 27.6644 64.9815 27.0988 65.0079 26.4672C65.0291 25.8247 64.8748 25.1674 64.5451 24.4953Z" fill="#333333"/>
<path d="M71.6265 16.4755C72.7805 16.1201 73.8236 16.1842 74.7558 16.6679C75.6845 17.1399 76.3514 18.0338 76.7565 19.3493L78.4782 24.9405L76.9203 25.4202L75.2679 20.0541C74.9765 19.1078 74.5178 18.4594 73.8919 18.1089C73.2624 17.7468 72.538 17.6919 71.7187 17.9442C70.8878 18.2001 70.3042 18.664 69.9679 19.3361C69.6431 20.0047 69.6335 20.8352 69.9391 21.8276L71.5542 27.0725L69.979 27.5576L67.058 18.0717L68.6332 17.5867L69.049 18.9368C69.2113 18.3562 69.517 17.8515 69.9661 17.4226C70.4268 16.9902 70.9802 16.6744 71.6265 16.4755Z" fill="#333333"/>
<path d="M81.5971 15.6862L82.5831 21.4527C82.6645 21.9288 82.8237 22.2507 83.0606 22.4185C83.2955 22.5743 83.6629 22.6095 84.1628 22.524L85.3589 22.3195L85.594 23.6942L84.13 23.9445C83.2255 24.0991 82.5114 24.0069 81.9879 23.6676C81.4644 23.3284 81.1213 22.6827 80.9585 21.7305L79.9725 15.964L78.705 16.1807L78.476 14.8418L79.7436 14.625L79.3223 12.1613L80.9469 11.8835L81.3682 14.3473L83.9212 13.9107L84.1501 15.2497L81.5971 15.6862Z" fill="#333333"/>
<path d="M92.9387 23.2261C92.6249 23.2358 92.356 23.1354 92.1321 22.9249C91.9081 22.7143 91.7913 22.4522 91.7816 22.1384C91.7719 21.8246 91.8723 21.5557 92.0829 21.3318C92.2934 21.1078 92.5555 20.991 92.8693 20.9813C93.1711 20.972 93.4279 21.0728 93.6397 21.2837C93.8637 21.4942 93.9805 21.7564 93.9902 22.0702C93.9999 22.384 93.8995 22.6528 93.6889 22.8768C93.4905 23.1004 93.2404 23.2168 92.9387 23.2261Z" fill="#333333"/>
<path d="M103.418 15.3364C103.82 14.8194 104.363 14.4197 105.049 14.1375C105.748 13.8449 106.522 13.7579 107.371 13.8764C108.244 13.9983 109.004 14.3177 109.651 14.8347C110.31 15.3535 110.79 16.0239 111.09 16.846C111.391 17.6561 111.472 18.5635 111.331 19.568C111.193 20.5606 110.866 21.4172 110.351 22.1377C109.836 22.8583 109.189 23.3838 108.412 23.7142C107.646 24.0462 106.827 24.1513 105.954 24.0294C105.117 23.9126 104.401 23.6238 103.807 23.1629C103.227 22.6918 102.808 22.1518 102.552 21.543L101.648 28.0187L100.016 27.7908L102.039 13.2968L103.671 13.5246L103.418 15.3364ZM109.663 19.3352C109.767 18.5937 109.707 17.9271 109.485 17.3353C109.263 16.7434 108.915 16.2681 108.441 15.9093C107.978 15.5522 107.442 15.3311 106.832 15.246C106.234 15.1625 105.657 15.2344 105.102 15.4616C104.559 15.6785 104.093 16.0463 103.704 16.5649C103.328 17.0733 103.089 17.6923 102.988 18.4217C102.884 19.1632 102.943 19.8358 103.163 20.4396C103.397 21.0331 103.745 21.5144 104.205 21.8835C104.679 22.2422 105.215 22.4634 105.813 22.5468C106.423 22.6319 106.999 22.566 107.542 22.3491C108.098 22.1219 108.563 21.7542 108.939 21.2458C109.317 20.7254 109.558 20.0886 109.663 19.3352Z" fill="#333333"/>
<path d="M117.018 12.4855L113.709 25.4736L112.112 25.0667L115.421 12.0786L117.018 12.4855Z" fill="#333333"/>
<path d="M117.404 21.1397C117.764 20.1914 118.271 19.4345 118.925 18.8689C119.583 18.2921 120.32 17.9325 121.136 17.7901C121.963 17.6521 122.789 17.7394 123.613 18.0522C124.426 18.3607 125.065 18.8034 125.53 19.3804C125.996 19.9575 126.275 20.567 126.367 21.209L127.01 19.5156L128.567 20.1068L125.046 29.3864L123.488 28.7952L124.143 27.068C123.633 27.4942 123.004 27.7722 122.258 27.9021C121.527 28.025 120.76 27.9344 119.959 27.6302C119.135 27.3174 118.467 26.8315 117.955 26.1723C117.443 25.5131 117.134 24.7438 117.029 23.8643C116.924 22.9849 117.049 22.0766 117.404 21.1397ZM125.255 24.1385C125.521 23.4385 125.611 22.7754 125.526 22.149C125.441 21.5226 125.207 20.9818 124.824 20.5266C124.457 20.0645 123.986 19.7241 123.41 19.5056C122.834 19.2871 122.258 19.2234 121.681 19.3144C121.104 19.4054 120.576 19.657 120.097 20.0691C119.617 20.4813 119.245 21.0374 118.979 21.7373C118.709 22.4485 118.615 23.123 118.696 23.7607C118.781 24.3871 119.007 24.9314 119.374 25.3935C119.745 25.8444 120.219 26.1791 120.795 26.3976C121.37 26.6161 121.947 26.6799 122.524 26.5889C123.116 26.4909 123.652 26.2358 124.131 25.8236C124.615 25.4001 124.99 24.8384 125.255 24.1385Z" fill="#333333"/>
<path d="M135.954 23.844C137 24.4466 137.664 25.2538 137.945 26.2657C138.232 27.2672 138.032 28.3643 137.345 29.5571L134.426 34.6266L133.013 33.8131L135.815 28.9476C136.309 28.0896 136.472 27.3121 136.302 26.6151C136.138 25.9076 135.684 25.34 134.942 24.9121C134.188 24.4782 133.451 24.3672 132.73 24.5789C132.019 24.7966 131.405 25.3554 130.887 26.2553L128.148 31.0109L126.719 30.1883L131.673 21.5874L133.101 22.41L132.396 23.6342C132.932 23.3574 133.509 23.2373 134.129 23.2739C134.76 23.3165 135.368 23.5065 135.954 23.844Z" fill="#333333"/>
<path d="M143.291 30.5491L139.764 35.2165C139.472 35.6018 139.347 35.9382 139.387 36.2257C139.434 36.5036 139.66 36.7955 140.065 37.1012L141.033 37.8329L140.192 38.9455L139.007 38.0501C138.275 37.4968 137.853 36.9132 137.742 36.2994C137.631 35.6856 137.866 34.9934 138.449 34.2227L141.976 29.5554L140.95 28.7801L141.769 27.6963L142.795 28.4716L144.302 26.4776L145.617 27.4713L144.11 29.4654L146.176 31.0269L145.357 32.1107L143.291 30.5491Z" fill="#333333"/>
<path d="M145.563 43.9908C145.341 43.7688 145.23 43.5041 145.23 43.1968C145.23 42.8894 145.341 42.6247 145.563 42.4027C145.785 42.1807 146.049 42.0697 146.357 42.0697C146.664 42.0697 146.929 42.1807 147.151 42.4027C147.364 42.6162 147.467 42.8723 147.458 43.1712C147.458 43.4785 147.347 43.7432 147.125 43.9652C146.903 44.1872 146.638 44.2982 146.331 44.2982C146.032 44.3067 145.776 44.2043 145.563 43.9908Z" fill="#333333"/>
<path d="M158.256 45.949C158.907 45.886 159.571 46.0068 160.247 46.3116C160.939 46.6192 161.534 47.1224 162.031 47.8211C162.541 48.5396 162.831 49.3116 162.899 50.1371C162.975 50.9724 162.816 51.7813 162.424 52.5636C162.042 53.339 161.437 54.0204 160.611 54.6081C159.794 55.1887 158.947 55.539 158.069 55.6591C157.192 55.7792 156.366 55.6699 155.592 55.3312C154.825 55.0024 154.186 54.4788 153.675 53.7603C153.185 53.0714 152.904 52.3528 152.832 51.6044C152.776 50.859 152.881 50.184 153.148 49.5797L147.819 53.3677L146.864 52.0243L158.792 43.5458L159.747 44.8892L158.256 45.949ZM159.635 53.2351C160.245 52.8014 160.689 52.3006 160.967 51.7328C161.245 51.1649 161.351 50.5855 161.287 49.9944C161.229 49.4131 161.022 48.8716 160.665 48.3696C160.315 47.8775 159.867 47.5073 159.32 47.259C158.79 47.0135 158.203 46.9273 157.559 47.0002C156.931 47.0759 156.317 47.3271 155.717 47.7539C155.106 48.1876 154.657 48.6919 154.37 49.2667C154.099 49.8444 153.987 50.4273 154.035 51.0156C154.1 51.6067 154.307 52.1483 154.657 52.6404C155.014 53.1423 155.457 53.516 155.987 53.7615C156.534 54.0098 157.121 54.0961 157.749 54.0203C158.386 53.9376 159.015 53.6758 159.635 53.2351Z" fill="#333333"/>
<path d="M169.724 53.9816L157.988 60.4554L157.192 59.0122L168.928 52.5384L169.724 53.9816Z" fill="#333333"/>
<path d="M163.689 60.1722C164.626 59.7841 165.524 59.6341 166.384 59.7223C167.255 59.8059 168.022 60.0959 168.685 60.5924C169.353 61.1 169.856 61.761 170.193 62.5754C170.525 63.3786 170.641 64.1474 170.54 64.8819C170.439 65.6164 170.187 66.2373 169.783 66.7445L171.456 66.0514L172.094 67.5909L162.924 71.3889L162.286 69.8495L163.993 69.1425C163.333 69.0631 162.699 68.7961 162.093 68.3416C161.502 67.8935 161.043 67.2735 160.715 66.4814C160.377 65.6671 160.273 64.8476 160.402 64.0231C160.531 63.1986 160.88 62.4465 161.448 61.7669C162.016 61.0873 162.763 60.5557 163.689 60.1722ZM166.888 67.9435C167.579 67.657 168.124 67.2681 168.522 66.7766C168.919 66.2852 169.153 65.7442 169.222 65.1536C169.307 64.5695 169.231 63.9931 168.996 63.4241C168.76 62.8552 168.411 62.3919 167.949 62.0342C167.488 61.6766 166.942 61.4646 166.314 61.3982C165.685 61.3319 165.025 61.4419 164.333 61.7284C163.63 62.0195 163.075 62.4131 162.666 62.9091C162.268 63.4006 162.027 63.9383 161.942 64.5224C161.868 65.1018 161.949 65.676 162.185 66.2449C162.421 66.8139 162.769 67.2772 163.231 67.6348C163.709 67.999 164.262 68.2143 164.891 68.2806C165.53 68.3423 166.196 68.23 166.888 67.9435Z" fill="#333333"/>
<path d="M174.429 75.4356C174.71 76.61 174.578 77.6469 174.036 78.546C173.505 79.4424 172.57 80.0503 171.231 80.3698L165.54 81.7276L165.162 80.1421L170.624 78.8389C171.587 78.6091 172.263 78.1931 172.653 77.5911C173.055 76.9862 173.157 76.2668 172.958 75.4329C172.756 74.5873 172.33 73.975 171.681 73.5961C171.035 73.2289 170.207 73.1659 169.197 73.4069L163.859 74.6807L163.476 73.0775L173.131 70.7737L173.513 72.3769L172.139 72.7048C172.708 72.9042 173.192 73.2418 173.591 73.7176C173.993 74.2052 174.272 74.7778 174.429 75.4356Z" fill="#333333"/>
<path d="M174.59 85.3271L168.774 85.9574C168.294 86.0094 167.963 86.1485 167.781 86.3747C167.611 86.5996 167.553 86.9641 167.608 87.4683L167.738 88.6748L166.352 88.825L166.192 87.3485C166.093 86.4361 166.229 85.7291 166.6 85.2274C166.97 84.7257 167.636 84.4229 168.596 84.3188L174.412 83.6885L174.274 82.4101L175.624 82.2637L175.763 83.5422L178.248 83.2729L178.425 84.9115L175.941 85.1808L176.22 87.7557L174.869 87.9021L174.59 85.3271Z" fill="#333333"/>
</g>
<g id="Vector_2">
<path d="M174.302 102.513C174.843 102.882 175.275 103.4 175.599 104.067C175.934 104.747 176.068 105.514 176.002 106.369C175.934 107.248 175.662 108.026 175.186 108.704C174.709 109.394 174.069 109.913 173.267 110.263C172.477 110.614 171.576 110.75 170.565 110.672C169.566 110.595 168.691 110.321 167.94 109.851C167.189 109.381 166.625 108.769 166.247 108.013C165.869 107.269 165.713 106.458 165.781 105.579C165.847 104.736 166.091 104.004 166.514 103.383C166.949 102.775 167.462 102.324 168.054 102.031L161.535 101.527L161.662 99.8833L176.253 101.011L176.126 102.654L174.302 102.513ZM170.695 108.992C171.441 109.05 172.103 108.95 172.68 108.692C173.257 108.434 173.71 108.057 174.039 107.562C174.367 107.078 174.555 106.53 174.602 105.916C174.649 105.314 174.542 104.742 174.281 104.201C174.031 103.673 173.635 103.231 173.093 102.874C172.563 102.53 171.93 102.33 171.196 102.273C170.45 102.216 169.782 102.315 169.193 102.573C168.615 102.843 168.156 103.219 167.816 103.702C167.487 104.197 167.299 104.746 167.253 105.347C167.205 105.961 167.306 106.532 167.556 107.06C167.817 107.601 168.213 108.044 168.743 108.387C169.286 108.732 169.936 108.934 170.695 108.992Z" fill="#333333"/>
<path d="M177.996 115.949L164.83 113.438L165.139 111.819L178.305 114.33L177.996 115.949Z" fill="#333333"/>
<path d="M169.411 116.79C170.38 117.088 171.168 117.545 171.774 118.162C172.392 118.781 172.798 119.494 172.992 120.299C173.183 121.116 173.148 121.945 172.889 122.788C172.633 123.619 172.232 124.285 171.686 124.786C171.14 125.288 170.55 125.605 169.915 125.738L171.646 126.271L171.155 127.864L161.67 124.943L162.16 123.35L163.926 123.894C163.468 123.412 163.15 122.802 162.973 122.065C162.803 121.344 162.845 120.573 163.097 119.754C163.356 118.911 163.799 118.214 164.424 117.661C165.049 117.108 165.797 116.751 166.668 116.589C167.539 116.428 168.453 116.495 169.411 116.79ZM166.92 124.816C167.636 125.036 168.303 125.084 168.923 124.959C169.543 124.834 170.067 124.566 170.497 124.155C170.935 123.759 171.244 123.267 171.426 122.678C171.607 122.09 171.634 121.511 171.506 120.941C171.378 120.371 171.093 119.86 170.651 119.408C170.209 118.956 169.631 118.62 168.915 118.399C168.188 118.175 167.509 118.124 166.878 118.246C166.258 118.371 165.729 118.631 165.292 119.027C164.865 119.427 164.562 119.92 164.38 120.509C164.199 121.098 164.172 121.677 164.3 122.247C164.436 122.832 164.725 123.35 165.167 123.802C165.62 124.258 166.205 124.596 166.92 124.816Z" fill="#333333"/>
<path d="M167.865 135.557C167.329 136.639 166.565 137.352 165.573 137.696C164.592 138.046 163.484 137.915 162.25 137.305L157.008 134.709L157.731 133.248L162.763 135.739C163.65 136.179 164.436 136.292 165.121 136.078C165.817 135.87 166.355 135.382 166.735 134.614C167.121 133.835 167.186 133.092 166.929 132.386C166.667 131.69 166.071 131.112 165.14 130.651L160.222 128.216L160.953 126.739L169.848 131.143L169.117 132.62L167.851 131.993C168.161 132.51 168.317 133.079 168.319 133.7C168.316 134.332 168.165 134.951 167.865 135.557Z" fill="#333333"/>
<path d="M161.642 143.294L156.765 140.064C156.362 139.797 156.019 139.693 155.734 139.75C155.46 139.815 155.183 140.058 154.903 140.481L154.232 141.493L153.07 140.723L153.89 139.485C154.397 138.72 154.953 138.262 155.559 138.113C156.164 137.964 156.87 138.156 157.675 138.69L162.553 141.92L163.263 140.848L164.395 141.598L163.685 142.67L165.769 144.05L164.859 145.425L162.775 144.044L161.345 146.204L160.212 145.454L161.642 143.294Z" fill="#333333"/>
<path d="M148.337 146.445C148.545 146.21 148.802 146.082 149.109 146.063C149.416 146.045 149.687 146.139 149.922 146.347C150.158 146.555 150.285 146.812 150.304 147.119C150.323 147.426 150.228 147.697 150.02 147.932C149.821 148.158 149.571 148.276 149.272 148.286C148.966 148.305 148.695 148.211 148.459 148.003C148.224 147.795 148.097 147.538 148.078 147.231C148.051 146.933 148.137 146.671 148.337 146.445Z" fill="#333333"/>
<path d="M147.133 159.266C147.237 159.912 147.157 160.582 146.895 161.276C146.631 161.986 146.165 162.611 145.499 163.15C144.813 163.704 144.061 164.041 143.241 164.16C142.412 164.287 141.595 164.179 140.79 163.836C139.992 163.503 139.275 162.942 138.637 162.153C138.007 161.374 137.605 160.55 137.43 159.682C137.256 158.813 137.314 157.982 137.604 157.189C137.885 156.403 138.368 155.733 139.053 155.178C139.71 154.647 140.41 154.322 141.153 154.203C141.893 154.101 142.573 154.164 143.193 154.393L139.082 149.309L140.364 148.272L149.565 159.652L148.283 160.689L147.133 159.266ZM139.947 161.094C140.417 161.676 140.945 162.088 141.529 162.331C142.113 162.573 142.698 162.643 143.284 162.542C143.86 162.449 144.388 162.208 144.867 161.821C145.336 161.441 145.678 160.971 145.892 160.41C146.104 159.866 146.154 159.274 146.041 158.635C145.926 158.014 145.638 157.417 145.175 156.844C144.704 156.262 144.173 155.845 143.581 155.593C142.988 155.359 142.399 155.284 141.815 155.368C141.229 155.469 140.701 155.709 140.232 156.089C139.753 156.476 139.407 156.942 139.195 157.486C138.981 158.047 138.932 158.639 139.046 159.26C139.168 159.891 139.468 160.503 139.947 161.094Z" fill="#333333"/>
<path d="M139.868 171.182L132.673 159.874L134.064 158.989L141.259 170.297L139.868 171.182Z" fill="#333333"/>
<path d="M133.306 165.545C133.753 166.456 133.959 167.343 133.925 168.207C133.897 169.082 133.656 169.865 133.203 170.559C132.738 171.257 132.111 171.8 131.319 172.188C130.539 172.571 129.779 172.736 129.039 172.681C128.3 172.627 127.664 172.414 127.132 172.043L127.93 173.669L126.434 174.403L122.063 165.492L123.559 164.758L124.373 166.416C124.41 165.753 124.637 165.104 125.052 164.47C125.462 163.852 126.052 163.354 126.821 162.976C127.613 162.588 128.424 162.433 129.255 162.509C130.086 162.586 130.859 162.886 131.573 163.41C132.287 163.934 132.865 164.646 133.306 165.545ZM125.753 169.23C126.082 169.902 126.505 170.421 127.021 170.787C127.536 171.152 128.091 171.351 128.685 171.383C129.273 171.43 129.843 171.319 130.396 171.047C130.949 170.776 131.39 170.399 131.717 169.915C132.045 169.432 132.222 168.874 132.248 168.243C132.275 167.611 132.123 166.959 131.794 166.287C131.459 165.604 131.031 165.074 130.51 164.698C129.994 164.332 129.442 164.125 128.854 164.077C128.271 164.041 127.703 164.158 127.15 164.429C126.597 164.7 126.157 165.077 125.829 165.561C125.496 166.061 125.316 166.626 125.29 167.258C125.269 167.9 125.423 168.558 125.753 169.23Z" fill="#333333"/>
<path d="M118.671 177.25C117.517 177.605 116.474 177.541 115.542 177.057C114.613 176.585 113.946 175.691 113.541 174.376L111.82 168.785L113.378 168.305L115.03 173.671C115.321 174.617 115.78 175.266 116.406 175.616C117.035 175.978 117.76 176.033 118.579 175.781C119.41 175.525 119.994 175.061 120.33 174.389C120.655 173.72 120.664 172.89 120.359 171.897L118.744 166.652L120.319 166.167L123.24 175.653L121.665 176.138L121.249 174.788C121.087 175.369 120.781 175.874 120.332 176.302C119.871 176.735 119.318 177.051 118.671 177.25Z" fill="#333333"/>
<path d="M108.701 178.039L107.715 172.272C107.633 171.796 107.474 171.474 107.237 171.307C107.002 171.151 106.635 171.116 106.135 171.201L104.939 171.406L104.704 170.031L106.168 169.781C107.072 169.626 107.786 169.718 108.31 170.057C108.833 170.397 109.177 171.042 109.339 171.994L110.325 177.761L111.593 177.544L111.822 178.883L110.554 179.1L110.975 181.564L109.351 181.841L108.93 179.378L106.377 179.814L106.148 178.475L108.701 178.039Z" fill="#333333"/>
<path d="M97.3591 170.499C97.6729 170.489 97.9418 170.59 98.1657 170.8C98.3897 171.011 98.5065 171.273 98.5162 171.587C98.5259 171.9 98.4255 172.169 98.215 172.393C98.0044 172.617 97.7423 172.734 97.4285 172.744C97.1267 172.753 96.8699 172.652 96.6581 172.441C96.4341 172.231 96.3173 171.969 96.3076 171.655C96.2979 171.341 96.3983 171.072 96.6089 170.848C96.8073 170.625 97.0574 170.508 97.3591 170.499Z" fill="#333333"/>
<path d="M86.8796 178.389C86.4782 178.906 85.9348 179.305 85.2492 179.588C84.55 179.88 83.7759 179.967 82.9268 179.849C82.0538 179.727 81.2938 179.407 80.6466 178.89C79.9875 178.372 79.5081 177.701 79.2083 176.879C78.9069 176.069 78.8262 175.162 78.9665 174.157C79.105 173.164 79.4318 172.308 79.9469 171.587C80.462 170.867 81.1083 170.341 81.886 170.011C82.6516 169.679 83.4709 169.574 84.3439 169.696C85.181 169.812 85.8966 170.101 86.4907 170.562C87.0711 171.033 87.4895 171.573 87.7459 172.182L88.6497 165.706L90.2821 165.934L88.2591 180.428L86.6267 180.2L86.8796 178.389ZM80.6347 174.39C80.5312 175.131 80.5906 175.798 80.8128 176.39C81.0349 176.982 81.3831 177.457 81.8573 177.816C82.3195 178.173 82.8556 178.394 83.4655 178.479C84.0634 178.562 84.6403 178.491 85.1963 178.263C85.7386 178.047 86.2045 177.679 86.5939 177.16C86.9696 176.652 87.2084 176.033 87.3102 175.303C87.4137 174.562 87.3552 173.889 87.1347 173.285C86.9005 172.692 86.5532 172.211 86.0926 171.842C85.6184 171.483 85.0824 171.262 84.4845 171.178C83.8746 171.093 83.2984 171.159 82.7561 171.376C82.2002 171.603 81.7343 171.971 81.3586 172.479C80.9811 173 80.7399 173.636 80.6347 174.39Z" fill="#333333"/>
<path d="M73.2798 181.239L76.5886 168.251L78.1858 168.658L74.877 181.646L73.2798 181.239Z" fill="#333333"/>
<path d="M72.8934 172.585C72.5335 173.534 72.0267 174.291 71.373 174.856C70.7149 175.433 69.9779 175.793 69.1619 175.935C68.3346 176.073 67.5089 175.986 66.6848 175.673C65.872 175.364 65.2328 174.922 64.7673 174.345C64.3018 173.768 64.023 173.158 63.9309 172.516L63.2882 174.209L61.7303 173.618L65.252 164.339L66.8099 164.93L66.1544 166.657C66.6649 166.231 67.2934 165.953 68.0402 165.823C68.7713 165.7 69.5376 165.791 70.3391 166.095C71.1632 166.408 71.8312 166.894 72.343 167.553C72.8549 168.212 73.1634 168.981 73.2688 169.861C73.3741 170.74 73.249 171.648 72.8934 172.585ZM65.0426 169.587C64.777 170.286 64.6868 170.95 64.7719 171.576C64.8571 172.202 65.0909 172.743 65.4735 173.198C65.8406 173.661 66.312 174.001 66.8877 174.219C67.4635 174.438 68.0398 174.502 68.6168 174.411C69.1937 174.32 69.7219 174.068 70.2012 173.656C70.6805 173.244 71.053 172.688 71.3186 171.988C71.5885 171.276 71.683 170.602 71.6021 169.964C71.517 169.338 71.2909 168.794 70.9239 168.331C70.5526 167.881 70.079 167.546 69.5033 167.327C68.9275 167.109 68.3512 167.045 67.7742 167.136C67.1817 167.234 66.6458 167.489 66.1665 167.901C65.6829 168.325 65.3083 168.887 65.0426 169.587Z" fill="#333333"/>
<path d="M54.3439 169.881C53.2976 169.278 52.6338 168.471 52.3527 167.459C52.0655 166.458 52.2655 165.361 52.9524 164.168L55.8722 159.098L57.2847 159.912L54.4825 164.777C53.9884 165.635 53.8262 166.413 53.9961 167.11C54.16 167.817 54.6133 168.385 55.3562 168.813C56.1096 169.247 56.8468 169.358 57.5679 169.146C58.2786 168.928 58.893 168.37 59.4113 167.47L62.1502 162.714L63.5785 163.537L58.6249 172.138L57.1966 171.315L57.9017 170.091C57.3661 170.368 56.7883 170.488 56.1684 170.451C55.538 170.409 54.9299 170.219 54.3439 169.881Z" fill="#333333"/>
<path d="M47.0071 163.176L50.5342 158.509C50.8254 158.123 50.951 157.787 50.911 157.499C50.8637 157.221 50.6378 156.93 50.2332 156.624L49.265 155.892L50.1058 154.78L51.2907 155.675C52.0229 156.228 52.4446 156.812 52.5558 157.426C52.6671 158.039 52.4315 158.732 51.8491 159.502L48.322 164.17L49.3479 164.945L48.529 166.029L47.503 165.253L45.9961 167.247L44.6811 166.254L46.1881 164.26L44.1217 162.698L44.9407 161.614L47.0071 163.176Z" fill="#333333"/>
<path d="M44.7352 149.734C44.9572 149.956 45.0682 150.221 45.0682 150.528C45.0682 150.836 44.9572 151.1 44.7352 151.322C44.5132 151.544 44.2486 151.655 43.9412 151.655C43.6338 151.655 43.3691 151.544 43.1471 151.322C42.9337 151.109 42.8312 150.853 42.8398 150.554C42.8398 150.246 42.9508 149.982 43.1728 149.76C43.3947 149.538 43.6594 149.427 43.9668 149.427C44.2656 149.418 44.5218 149.521 44.7352 149.734Z" fill="#333333"/>
<path d="M32.042 147.776C31.3906 147.839 30.7269 147.718 30.051 147.413C29.3584 147.106 28.7637 146.603 28.267 145.904C27.7563 145.185 27.4668 144.413 27.3986 143.588C27.3233 142.753 27.4817 141.944 27.8737 141.161C28.2559 140.386 28.8604 139.705 29.6871 139.117C30.504 138.536 31.3512 138.186 32.2287 138.066C33.1063 137.946 33.9321 138.055 34.7061 138.394C35.4732 138.723 36.112 139.246 36.6227 139.965C37.1124 140.654 37.3936 141.372 37.4662 142.121C37.522 142.866 37.4166 143.541 37.1499 144.145L42.4793 140.357L43.4342 141.701L31.5058 150.179L30.551 148.836L32.042 147.776ZM30.663 140.49C30.0528 140.924 29.6087 141.424 29.3309 141.992C29.0531 142.56 28.9464 143.14 29.0111 143.731C29.0687 144.312 29.2758 144.853 29.6326 145.355C29.9824 145.847 30.4307 146.218 30.9776 146.466C31.5076 146.711 32.0948 146.798 32.7393 146.725C33.3669 146.649 33.9808 146.398 34.5812 145.971C35.1914 145.537 35.6403 145.033 35.928 144.458C36.1988 143.881 36.3104 143.298 36.2626 142.709C36.198 142.118 35.9908 141.577 35.6411 141.085C35.2843 140.583 34.8409 140.209 34.3109 139.964C33.764 139.715 33.1768 139.629 32.5492 139.705C31.9117 139.787 31.283 140.049 30.663 140.49Z" fill="#333333"/>
<path d="M20.5741 139.743L32.3099 133.27L33.106 134.713L21.3702 141.187L20.5741 139.743Z" fill="#333333"/>
<path d="M26.6091 133.553C25.672 133.941 24.7736 134.091 23.9136 134.003C23.0426 133.919 22.2755 133.629 21.6125 133.133C20.9448 132.625 20.4423 131.964 20.105 131.15C19.7723 130.346 19.6565 129.578 19.7574 128.843C19.8583 128.109 20.1109 127.488 20.5151 126.981L18.8417 127.674L18.2041 126.134L27.3741 122.336L28.0117 123.876L26.3049 124.582C26.9651 124.662 27.5985 124.929 28.205 125.383C28.7957 125.831 29.2551 126.451 29.5831 127.244C29.9204 128.058 30.0246 128.877 29.8956 129.702C29.7666 130.526 29.4181 131.278 28.85 131.958C28.282 132.638 27.535 133.169 26.6091 133.553ZM23.41 125.782C22.7183 126.068 22.1737 126.457 21.776 126.948C21.3784 127.44 21.145 127.981 21.076 128.571C20.9911 129.155 21.0666 129.732 21.3022 130.301C21.5378 130.87 21.8866 131.333 22.3484 131.691C22.8102 132.048 23.3554 132.26 23.9841 132.327C24.6127 132.393 25.2729 132.283 25.9646 131.997C26.6674 131.705 27.2232 131.312 27.632 130.816C28.0296 130.324 28.2709 129.787 28.3557 129.203C28.4294 128.623 28.3484 128.049 28.1128 127.48C27.8771 126.911 27.5284 126.448 27.0666 126.09C26.589 125.726 26.0359 125.511 25.4072 125.444C24.7674 125.383 24.1016 125.495 23.41 125.782Z" fill="#333333"/>
<path d="M15.8685 118.289C15.5882 117.115 15.7194 116.078 16.2621 115.179C16.793 114.283 17.728 113.675 19.0669 113.355L24.7573 111.997L25.1357 113.583L19.6743 114.886C18.7112 115.116 18.0346 115.532 17.6444 116.134C17.2426 116.739 17.1411 117.458 17.3401 118.292C17.5419 119.138 17.9673 119.75 18.6164 120.129C19.2626 120.496 20.0907 120.559 21.1008 120.318L26.4389 119.044L26.8214 120.648L17.1671 122.951L16.7845 121.348L18.1587 121.02C17.5897 120.821 17.1057 120.483 16.7067 120.007C16.3048 119.52 16.0254 118.947 15.8685 118.289Z" fill="#333333"/>
<path d="M15.7078 108.398L21.5239 107.768C22.0041 107.716 22.3352 107.576 22.5172 107.35C22.6871 107.125 22.7448 106.761 22.6901 106.257L22.5594 105.05L23.9459 104.9L24.1059 106.377C24.2048 107.289 24.0689 107.996 23.6981 108.498C23.3274 108.999 22.6619 109.302 21.7015 109.406L15.8854 110.036L16.0239 111.315L14.6734 111.461L14.5349 110.183L12.0499 110.452L11.8724 108.813L14.3573 108.544L14.0783 105.969L15.4288 105.823L15.7078 108.398Z" fill="#333333"/>
</g>
</g>
</svg>
