<svg width="74" height="80" viewBox="0 0 74 80" fill="none" xmlns="http://www.w3.org/2000/svg">
<path id="Soft Star" d="M36.0126 0.948246C36.1515 -0.316082 37.8485 -0.316082 37.9874 0.948246L39.1515 11.5548C40.6547 25.2508 50.6431 36.049 63.3117 37.674L73.1228 38.9325C74.2924 39.0827 74.2924 40.9173 73.1228 41.0675L63.3117 42.326C50.6431 43.951 40.6547 54.7493 39.1515 68.4451L37.9874 79.0516C37.8485 80.3161 36.1515 80.3161 36.0126 79.0516L34.8485 68.4451C33.3453 54.7493 23.3569 43.951 10.6882 42.326L0.877128 41.0675C-0.292376 40.9173 -0.292376 39.0827 0.877128 38.9325L10.6882 37.674C23.3569 36.049 33.3453 25.2508 34.8485 11.5548L36.0126 0.948246Z" fill="#333333"/>
</svg>
